<svg xmlns="http://www.w3.org/2000/svg" viewBox="0 0 1760 956" role="img" aria-label="Warp architecture: clients connect over native protocols to frontends, which share one pipeline and store data in Postgres backend sets"><style>
:root{--paper:#f4f3ef;--surface:#ffffff;--ink:#20211f;--muted:#666962;--line:#dcded7;--ember:#e4512d;--ember_s:#fff0e8;--green:#19725a;--green_s:#e5f3ed;--amber:#9a6508;--amber_s:#fbf1dc;--slate:#4a4d45;--slate_s:#ecece7;--ink_s:#e6e6e0;--rail:#242722;--rail_text:#f4f2eb;--rail_muted:#a7aaa1}
@media (prefers-color-scheme: dark){:root{--paper:#171816;--surface:#242722;--ink:#f4f2eb;--muted:#a7aaa1;--line:#3b3e37;--ember:#f0704f;--ember_s:#3a2219;--green:#3fbf98;--green_s:#17302a;--amber:#e0a93a;--amber_s:#38290f;--slate:#b9bcb2;--slate_s:#2d302a;--ink_s:#2d302a;--rail:#0f100f;--rail_text:#f4f2eb;--rail_muted:#a7aaa1}}
text{font-family:Inter, 'Helvetica Neue', Arial, sans-serif;fill:var(--ink)}
.h1{font-size:34px;font-weight:700;letter-spacing:-0.02em}
.sub{font-size:18px;fill:var(--ember);font-weight:600}
.note{font-size:14px;fill:var(--muted)}
.eyebrow{font-size:12px;letter-spacing:.12em;font-weight:700;fill:var(--muted)}
.grp{font-size:12px;letter-spacing:.1em;font-weight:700}
.grp.ember{fill:var(--ember)}.grp.green{fill:var(--green)}.grp.amber{fill:var(--amber)}
.grp.slate{fill:var(--slate)}.grp.ink{fill:var(--ink)}
.mono{font-family:'JetBrains Mono', 'SF Mono', Menlo, monospace;font-size:13px;font-weight:600}
.port{font-family:'JetBrains Mono', 'SF Mono', Menlo, monospace;font-size:11px;fill:var(--muted)}
.small{font-size:12px;fill:var(--muted)}
.lbl{font-size:14px;font-weight:600}
.cap{font-size:12px;fill:var(--muted)}
.h3{font-size:17px;font-weight:700}
.box{fill:var(--surface);stroke:var(--line)}
.card{fill:var(--surface);stroke:var(--line)}
.rail{fill:var(--rail)}
.stage{fill:none;stroke:var(--rail_muted);stroke-opacity:.5}
.stage-t{fill:var(--rail_text);font-size:14px;font-weight:600}
.rail-cap{fill:var(--rail_muted);font-size:11px}
.edge{stroke:var(--muted);stroke-width:1.5;fill:none}
.pill{fill:var(--surface);stroke:var(--slate)}
.pilltxt{font-size:12px;font-weight:600}
</style><rect width="1760" height="1080" fill="var(--paper)"/><text x="40" y="58" class="h1" text-anchor="start">Warp</text><text x="128" y="58" class="sub" text-anchor="start">one Postgres estate, every database&#x27;s protocol</text><text x="40" y="86" class="note" text-anchor="start">Applications keep their drivers and change only the host and port. Every request, whatever the protocol, runs the same pipeline and lands in Postgres.</text><text x="40" y="128" class="eyebrow" text-anchor="start">CLIENTS</text><text x="350" y="128" class="eyebrow" text-anchor="start">FRONTENDS, one per protocol</text><text x="1110" y="128" class="eyebrow" text-anchor="start">SHARED PIPELINE</text><text x="1360" y="128" class="eyebrow" text-anchor="start">BACKEND SETS AND BACKENDS</text><rect x="40" y="150" width="250" height="62" rx="6" class="box"/><text x="56" y="187" class="lbl" text-anchor="start">JDBC / ODBC drivers</text><rect x="40" y="238" width="250" height="62" rx="6" class="box"/><text x="56" y="275" class="lbl" text-anchor="start">AWS, Azure and Google SDKs</text><rect x="40" y="326" width="250" height="62" rx="6" class="box"/><text x="56" y="363" class="lbl" text-anchor="start">mongosh, redis-cli, cypher-shell</text><rect x="40" y="414" width="250" height="62" rx="6" class="box"/><text x="56" y="451" class="lbl" text-anchor="start">Applications, ORMs, BI tools</text><rect x="40" y="502" width="250" height="62" rx="6" class="box"/><text x="56" y="539" class="lbl" text-anchor="start">AI agents</text><rect x="350" y="150" width="700" height="94" rx="8" fill="var(--ember_s)" stroke="var(--ember)" stroke-width="1"/><text x="366" y="176" class="grp ember" text-anchor="start">RELATIONAL SQL</text><rect x="366" y="190" width="162" height="46" rx="5" class="card"/><text x="378" y="210" class="mono" text-anchor="start">pgwire</text><text x="518" y="210" class="port" text-anchor="end">15432</text><text x="378" y="227" class="small" text-anchor="start">PostgreSQL</text><rect x="540" y="190" width="162" height="46" rx="5" class="card"/><text x="552" y="210" class="mono" text-anchor="start">mywire</text><text x="692" y="210" class="port" text-anchor="end">13306</text><text x="552" y="227" class="small" text-anchor="start">MySQL</text><rect x="714" y="190" width="162" height="46" rx="5" class="card"/><text x="726" y="210" class="mono" text-anchor="start">mssqlwire</text><text x="866" y="210" class="port" text-anchor="end">14333</text><text x="726" y="227" class="small" text-anchor="start">SQL Server</text><rect x="888" y="190" width="162" height="46" rx="5" class="card"/><text x="900" y="210" class="mono" text-anchor="start">orawire</text><text x="1040" y="210" class="port" text-anchor="end">11521</text><text x="900" y="227" class="small" text-anchor="start">Oracle</text><rect x="350" y="258" width="700" height="202" rx="8" fill="var(--green_s)" stroke="var(--green)" stroke-width="1"/><text x="366" y="284" class="grp green" text-anchor="start">DOCUMENTS, KEYS, SEARCH, GRAPH, SERIES</text><rect x="366" y="298" width="162" height="46" rx="5" class="card"/><text x="378" y="318" class="mono" text-anchor="start">mongowire</text><text x="518" y="318" class="port" text-anchor="end">27017</text><text x="378" y="335" class="small" text-anchor="start">MongoDB</text><rect x="540" y="298" width="162" height="46" rx="5" class="card"/><text x="552" y="318" class="mono" text-anchor="start">dynamowire</text><text x="692" y="318" class="port" text-anchor="end">18000</text><text x="552" y="335" class="small" text-anchor="start">DynamoDB</text><rect x="714" y="298" width="162" height="46" rx="5" class="card"/><text x="726" y="318" class="mono" text-anchor="start">rediswire</text><text x="866" y="318" class="port" text-anchor="end">16379</text><text x="726" y="335" class="small" text-anchor="start">Redis</text><rect x="888" y="298" width="162" height="46" rx="5" class="card"/><text x="900" y="318" class="mono" text-anchor="start">oswire</text><text x="1040" y="318" class="port" text-anchor="end">9200</text><text x="900" y="335" class="small" text-anchor="start">OpenSearch</text><rect x="366" y="352" width="162" height="46" rx="5" class="card"/><text x="378" y="372" class="mono" text-anchor="start">boltwire</text><text x="518" y="372" class="port" text-anchor="end">7687</text><text x="378" y="389" class="small" text-anchor="start">Neo4j</text><rect x="540" y="352" width="162" height="46" rx="5" class="card"/><text x="552" y="372" class="mono" text-anchor="start">influxwire</text><text x="692" y="372" class="port" text-anchor="end">8086</text><text x="552" y="389" class="small" text-anchor="start">InfluxDB</text><rect x="714" y="352" width="162" height="46" rx="5" class="card"/><text x="726" y="372" class="mono" text-anchor="start">aztable</text><text x="866" y="372" class="port" text-anchor="end">azure</text><text x="726" y="389" class="small" text-anchor="start">Azure Table</text><rect x="888" y="352" width="162" height="46" rx="5" class="card"/><text x="900" y="372" class="mono" text-anchor="start">firestorewire</text><text x="1040" y="372" class="port" text-anchor="end">8080</text><text x="900" y="389" class="small" text-anchor="start">Firestore</text><rect x="366" y="406" width="162" height="46" rx="5" class="card"/><text x="378" y="426" class="mono" text-anchor="start">datastorewire</text><text x="518" y="426" class="port" text-anchor="end">8081</text><text x="378" y="443" class="small" text-anchor="start">Datastore</text><rect x="540" y="406" width="162" height="46" rx="5" class="card"/><text x="552" y="426" class="mono" text-anchor="start">bigtablewire</text><text x="692" y="426" class="port" text-anchor="end">8088</text><text x="552" y="443" class="small" text-anchor="start">Bigtable</text><rect x="714" y="406" width="162" height="46" rx="5" class="card"/><text x="726" y="426" class="mono" text-anchor="start">cqlwire</text><text x="866" y="426" class="port" text-anchor="end">19042</text><text x="726" y="443" class="small" text-anchor="start">Cassandra</text><rect x="350" y="474" width="700" height="94" rx="8" fill="var(--amber_s)" stroke="var(--amber)" stroke-width="1"/><text x="366" y="500" class="grp amber" text-anchor="start">QUEUES AND STREAMS</text><rect x="366" y="514" width="162" height="46" rx="5" class="card"/><text x="378" y="534" class="mono" text-anchor="start">sqswire</text><text x="518" y="534" class="port" text-anchor="end">9324</text><text x="378" y="551" class="small" text-anchor="start">SQS</text><rect x="540" y="514" width="162" height="46" rx="5" class="card"/><text x="552" y="534" class="mono" text-anchor="start">awswire</text><text x="692" y="534" class="port" text-anchor="end">4566</text><text x="552" y="551" class="small" text-anchor="start">SNS, Kinesis</text><rect x="714" y="514" width="162" height="46" rx="5" class="card"/><text x="726" y="534" class="mono" text-anchor="start">azqueue</text><text x="866" y="534" class="port" text-anchor="end">azure</text><text x="726" y="551" class="small" text-anchor="start">Azure Queue</text><rect x="888" y="514" width="162" height="46" rx="5" class="card"/><text x="900" y="534" class="mono" text-anchor="start">pubsubwire</text><text x="1040" y="534" class="port" text-anchor="end">8085</text><text x="900" y="551" class="small" text-anchor="start">Pub/Sub</text><rect x="350" y="582" width="700" height="94" rx="8" fill="var(--slate_s)" stroke="var(--slate)" stroke-width="1"/><text x="366" y="608" class="grp slate" text-anchor="start">OBJECTS AND SECRETS</text><rect x="366" y="622" width="162" height="46" rx="5" class="card"/><text x="378" y="642" class="mono" text-anchor="start">s3wire</text><text x="518" y="642" class="port" text-anchor="end">18020</text><text x="378" y="659" class="small" text-anchor="start">S3</text><rect x="540" y="622" width="162" height="46" rx="5" class="card"/><text x="552" y="642" class="mono" text-anchor="start">azblob</text><text x="692" y="642" class="port" text-anchor="end">azure</text><text x="552" y="659" class="small" text-anchor="start">Azure Blob</text><rect x="714" y="622" width="162" height="46" rx="5" class="card"/><text x="726" y="642" class="mono" text-anchor="start">gcswire</text><text x="866" y="642" class="port" text-anchor="end">4443</text><text x="726" y="659" class="small" text-anchor="start">Cloud Storage</text><rect x="888" y="622" width="162" height="46" rx="5" class="card"/><text x="900" y="642" class="mono" text-anchor="start">awswire</text><text x="1040" y="642" class="port" text-anchor="end">4566</text><text x="900" y="659" class="small" text-anchor="start">Secrets, SSM, KMS, STS</text><rect x="350" y="690" width="700" height="94" rx="8" fill="var(--ink_s)" stroke="var(--ink)" stroke-width="1"/><text x="366" y="716" class="grp ink" text-anchor="start">WARP NATIVE</text><rect x="366" y="730" width="162" height="46" rx="5" class="card"/><text x="378" y="750" class="mono" text-anchor="start">gRPC</text><text x="518" y="750" class="port" text-anchor="end">7070</text><text x="378" y="767" class="small" text-anchor="start">typed clients</text><rect x="540" y="730" width="162" height="46" rx="5" class="card"/><text x="552" y="750" class="mono" text-anchor="start">MCP</text><text x="692" y="750" class="port" text-anchor="end">18010</text><text x="552" y="767" class="small" text-anchor="start">AI agents</text><rect x="714" y="730" width="162" height="46" rx="5" class="card"/><text x="726" y="750" class="mono" text-anchor="start">Admin UI</text><text x="866" y="750" class="port" text-anchor="end">19090</text><text x="726" y="767" class="small" text-anchor="start">operators</text><defs><marker id="ar" viewBox="0 0 10 10" refX="9" refY="5" markerWidth="7" markerHeight="7" orient="auto-start-reverse"><path d="M0 0L10 5L0 10z" fill="var(--muted)"/></marker></defs><path d="M290 181.0 C 320 181.0, 320 467.0, 348 467.0" class="edge"/><path d="M290 269.0 C 320 269.0, 320 467.0, 348 467.0" class="edge"/><path d="M290 357.0 C 320 357.0, 320 467.0, 348 467.0" class="edge"/><path d="M290 445.0 C 320 445.0, 320 467.0, 348 467.0" class="edge"/><path d="M290 533.0 C 320 533.0, 320 467.0, 348 467.0" class="edge"/><line x1="310" y1="467.0" x2="348" y2="467.0" class="edge" marker-end="url(#ar)"/><text x="40" y="582" class="cap" text-anchor="start">over each protocol&#x27;s own wire format</text><rect x="1110" y="150" width="190" height="634" rx="8" class="rail"/><rect x="1130" y="180.0" width="150" height="59.75" rx="5" class="stage"/><text x="1205.0" y="214.875" class="stage-t" text-anchor="middle">Federation</text><rect x="1130" y="251.75" width="150" height="59.75" rx="5" class="stage"/><text x="1205.0" y="286.625" class="stage-t" text-anchor="middle">Firewall</text><rect x="1130" y="323.5" width="150" height="59.75" rx="5" class="stage"/><text x="1205.0" y="358.375" class="stage-t" text-anchor="middle">Router</text><rect x="1130" y="395.25" width="150" height="59.75" rx="5" class="stage"/><text x="1205.0" y="430.125" class="stage-t" text-anchor="middle">QoS</text><rect x="1130" y="467.0" width="150" height="59.75" rx="5" class="stage"/><text x="1205.0" y="501.875" class="stage-t" text-anchor="middle">Dialect</text><rect x="1130" y="538.75" width="150" height="59.75" rx="5" class="stage"/><text x="1205.0" y="573.625" class="stage-t" text-anchor="middle">Rollup</text><rect x="1130" y="610.5" width="150" height="59.75" rx="5" class="stage"/><text x="1205.0" y="645.375" class="stage-t" text-anchor="middle">Cache</text><rect x="1130" y="682.25" width="150" height="59.75" rx="5" class="stage"/><text x="1205.0" y="717.125" class="stage-t" text-anchor="middle">Stats</text><text x="1205.0" y="772" class="rail-cap" text-anchor="middle">Ignite cache, cluster-wide</text><line x1="1054" y1="467.0" x2="1108" y2="467.0" class="edge" marker-end="url(#ar)"/><text x="1056" y="459.0" class="cap" text-anchor="start">SQL or</text><text x="1056" y="481.0" class="cap" text-anchor="start">store ops</text><rect x="1360" y="150" width="360" height="355.04" rx="8" fill="var(--surface)" stroke="var(--ember)" stroke-width="1.5"/><text x="1376" y="176" class="grp ember" text-anchor="start">POSTGRES, THE SYSTEM OF RECORD</text><rect x="1374" y="192" width="332" height="112" rx="6" class="card"/><text x="1388" y="216" class="lbl" text-anchor="start">Backend set: default</text><rect x="1388" y="232" width="84" height="56" rx="5" fill="var(--ember_s)" stroke="var(--ember)"/><text x="1430" y="265" class="mono" text-anchor="middle">pg-1</text><rect x="1484" y="232" width="84" height="56" rx="5" fill="var(--ember_s)" stroke="var(--ember)"/><text x="1526" y="265" class="mono" text-anchor="middle">pg-2</text><rect x="1580" y="232" width="84" height="56" rx="5" fill="var(--ember_s)" stroke="var(--ember)"/><text x="1622" y="265" class="mono" text-anchor="middle">pg-3</text><rect x="1374" y="318" width="332" height="112" rx="6" class="card"/><text x="1388" y="342" class="lbl" text-anchor="start">Backend set: orders</text><rect x="1388" y="358" width="84" height="56" rx="5" fill="var(--ember_s)" stroke="var(--ember)"/><text x="1430" y="391" class="mono" text-anchor="middle">pg-4</text><rect x="1484" y="358" width="84" height="56" rx="5" fill="var(--ember_s)" stroke="var(--ember)"/><text x="1526" y="391" class="mono" text-anchor="middle">pg-5</text><text x="1376" y="452" class="cap" text-anchor="start">Stores are sharded by hash across the backends of a set</text><text x="1376" y="470" class="cap" text-anchor="start">and rebalanced when a backend is added.</text><rect x="1360" y="527.04" width="360" height="117.47999999999999" rx="8" fill="var(--slate_s)" stroke="var(--slate)" stroke-width="1"/><text x="1376" y="553.04" class="grp slate" text-anchor="start">NATIVE BACKENDS (proxy mode)</text><rect x="1376" y="567.04" width="58.400000000000006" height="26" rx="13" class="pill"/><text x="1405.2" y="584.04" class="pilltxt" text-anchor="middle">Oracle</text><rect x="1442.4" y="567.04" width="51.0" height="26" rx="13" class="pill"/><text x="1467.9" y="584.04" class="pilltxt" text-anchor="middle">MySQL</text><rect x="1501.4" y="567.04" width="88.0" height="26" rx="13" class="pill"/><text x="1545.4" y="584.04" class="pilltxt" text-anchor="middle">SQL Server</text><rect x="1597.4" y="567.04" width="51.0" height="26" rx="13" class="pill"/><text x="1622.9" y="584.04" class="pilltxt" text-anchor="middle">Neo4j</text><rect x="1360" y="666.52" width="360" height="117.47999999999999" rx="8" fill="var(--slate_s)" stroke="var(--slate)" stroke-width="1"/><text x="1376" y="692.52" class="grp slate" text-anchor="start">CONNECTORS (federated reads)</text><rect x="1376" y="706.52" width="80.60000000000001" height="26" rx="13" class="pill"/><text x="1416.3" y="723.52" class="pilltxt" text-anchor="middle">Snowflake</text><rect x="1464.6" y="706.52" width="73.2" height="26" rx="13" class="pill"/><text x="1501.1999999999998" y="723.52" class="pilltxt" text-anchor="middle">BigQuery</text><rect x="1545.8" y="706.52" width="88.0" height="26" rx="13" class="pill"/><text x="1589.8" y="723.52" class="pilltxt" text-anchor="middle">ClickHouse</text><rect x="1641.8" y="706.52" width="51.0" height="26" rx="13" class="pill"/><text x="1667.3" y="723.52" class="pilltxt" text-anchor="middle">Kafka</text><rect x="1376" y="740.52" width="80.60000000000001" height="26" rx="13" class="pill"/><text x="1416.3" y="757.52" class="pilltxt" text-anchor="middle">Cassandra</text><rect x="1464.6" y="740.52" width="28.8" height="26" rx="13" class="pill"/><text x="1479.0" y="757.52" class="pilltxt" text-anchor="middle">S3</text><line x1="1304" y1="427.0" x2="1358" y2="427.0" class="edge" marker-end="url(#ar)"/><line x1="1304" y1="587.0" x2="1358" y2="587.0" class="edge" marker-end="url(#ar)"/><text x="40" y="818" class="eyebrow" text-anchor="start">AROUND THE GATEWAY</text><rect x="40.0" y="832" width="546.6666666666666" height="84" rx="8" class="box"/><text x="60.0" y="864" class="h3" text-anchor="start">Ferry</text><text x="60.0" y="892" class="small" text-anchor="start">migrates data and schema into Postgres</text><rect x="606.6666666666666" y="832" width="546.6666666666666" height="84" rx="8" class="box"/><text x="626.6666666666666" y="864" class="h3" text-anchor="start">Shim</text><text x="626.6666666666666" y="892" class="small" text-anchor="start">compatibility functions and views</text><rect x="1173.3333333333333" y="832" width="546.6666666666666" height="84" rx="8" class="box"/><text x="1193.3333333333333" y="864" class="h3" text-anchor="start">Control plane</text><text x="1193.3333333333333" y="892" class="small" text-anchor="start">backend sets, users, licences</text><text x="40" y="942" class="cap" text-anchor="start">Generated by docker/assets/gen_architecture.py. Ports shown are the frontend defaults inside the container; azure and gRPC/REST entries are configured per deployment.</text></svg>